HIERARCHY
ROOT Hips
{
    OFFSET 0.0 0.0 0.0
    CHANNELS 6 Xposition Yposition Zposition Zrotation Xrotation Yrotation
    JOINT Spine
    {
        OFFSET 0.0 5.0 0.0
        CHANNELS 3 Zrotation Xrotation Yrotation
        JOINT Chest
        {
            OFFSET 0.0 5.0 0.0
            CHANNELS 3 Zrotation Xrotation Yrotation
            JOINT Neck
            {
                OFFSET 0.0 8.0 0.0
                CHANNELS 3 Zrotation Xrotation Yrotation
                JOINT Head
                {
                    OFFSET 0.0 5.0 0.0
                    CHANNELS 3 Zrotation Xrotation Yrotation
                    End Site
                    {
                        OFFSET 0.0 3.0 0.0
                    }
                }
            }
            JOINT LeftShoulder
            {
                OFFSET -5.0 0.0 0.0
                CHANNELS 3 Zrotation Xrotation Yrotation
                JOINT LeftArm
                {
                    OFFSET 0.0 -10.0 0.0
                    CHANNELS 3 Zrotation Xrotation Yrotation
                    JOINT LeftForeArm
                    {
                        OFFSET 0.0 -10.0 0.0
                        CHANNELS 3 Zrotation Xrotation Yrotation
                        End Site
                        {
                            OFFSET 0.0 -3.0 0.0
                        }
                    }
                }
            }
        }
    }
}

MOTION
Frames: 44
Frame Time: 0.033333
960.000000 445.000000 90.886674 0.000000 0.000000 0.000000 0.000000 0.000000 0.000000 23.025492 -6.425467 0.000000 180.000000 -8.040852 0.000000 21.801409 9.191935 -0.000000 158.198591 -7.238885 30.000000 15.945396 -0.538423 0.000000 18.000000 0.136996 0.000000
1691.525230 140.756605 101.348863 0.000000 0.000000 0.000000 0.000000 0.000000 0.000000 -163.376529 3.757882 4.973798 16.623471 -2.946464 4.973798 -171.853121 -3.366547 3.759997 99.744051 6.724916 29.763441 -171.126653 -3.946430 -3.759997 0.673538 0.409271 0.313953
1636.048050 128.802021 93.742365 0.000000 0.000000 0.000000 0.000000 0.000000 0.000000 157.904128 1.375609 9.635073 -22.095872 -30.646177 9.635073 -171.936471 -3.325307 7.460697 -143.675701 -0.964121 29.057495 -173.500805 -4.242685 -7.460697 0.570999 0.490832 0.626666
1578.156967 80.474526 109.798516 0.000000 0.000000 0.000000 0.000000 0.000000 0.000000 -139.519796 8.266817 13.690942 40.480204 -8.856783 13.690942 -174.507724 -3.492381 11.043737 119.111399 -10.111781 27.893295 -173.607258 -3.699425 -11.043737 0.461920 0.512831 0.936907
960.418757 444.998421 122.537507 0.000000 0.000000 0.000000 0.000000 0.000000 0.000000 25.077893 -6.239778 16.886559 180.000000 1.895196 16.886559 23.861935 8.116494 14.452610 156.138065 15.643123 26.289200 17.903699 -6.800586 -14.452610 18.000000 -0.202861 1.243449
960.523360 444.997533 133.334757 0.000000 0.000000 0.000000 0.000000 0.000000 0.000000 25.638906 7.889867 19.021130 180.000000 -6.491512 19.021130 24.425035 5.440553 17.633558 155.574965 -5.101654 24.270510 18.452907 0.984949 -17.633558 18.000000 -0.333617 1.545085
960.627905 444.996447 131.475160 0.000000 0.000000 0.000000 0.000000 0.000000 0.000000 26.219073 24.826503 19.960535 180.000000 5.252578 19.960535 25.006291 -11.918045 20.536413 154.993709 -3.926324 21.869059 19.024920 -9.086723 -20.536413 18.000000 1.216688 1.840623
1126.242828 420.359820 146.169244 0.000000 0.000000 0.000000 0.000000 0.000000 0.000000 31.410514 1.580727 19.645745 -148.589486 9.197247 19.645745 32.280463 -8.269258 23.115397 -131.603972 -1.076900 19.122720 45.585331 2.113957 -23.115397 -13.449727 -0.137925 2.128896
1257.895088 650.549197 114.374597 0.000000 0.000000 0.000000 0.000000 0.000000 0.000000 25.073180 -0.838576 18.096541 -154.926820 -9.192230 18.096541 46.260945 0.551545 25.329838 -154.651428 -5.324429 16.074804 27.339487 5.997819 -25.329838 -13.619892 -1.629980 2.408768
960.941083 444.992008 143.409219 0.000000 0.000000 0.000000 0.000000 0.000000 0.000000 28.072001 -6.974753 15.410265 180.000000 -0.934031 15.410265 26.849221 -6.192867 27.144812 153.150779 -4.223365 12.773379 20.864045 0.506626 -27.144812 18.000000 1.029127 2.679134
1163.815842 547.748709 156.924861 0.000000 0.000000 0.000000 0.000000 0.000000 0.000000 117.162728 -13.478143 11.755705 -62.837272 12.589895 11.755705 102.363764 -3.244703 28.531695 -47.376450 4.722388 9.270510 104.768601 -0.473696 -28.531695 -6.003489 0.379513 2.938926
961.149372 444.988063 148.814073 0.000000 0.000000 0.000000 0.000000 0.000000 0.000000 29.395983 9.859233 7.362491 180.000000 3.609535 7.362491 28.146217 4.787084 29.468618 151.853783 4.641728 5.621439 22.170006 -5.003023 -29.468618 18.000000 0.846839 3.187120
1136.717377 590.104480 157.748264 0.000000 0.000000 0.000000 0.000000 0.000000 0.000000 115.752126 -5.883569 2.506665 -64.247874 0.988336 2.506665 73.638146 1.991342 29.940802 -21.842452 7.748033 1.883716 75.369282 -6.063651 -29.940802 -6.767207 -0.574553 3.422736
1163.079758 634.077559 159.708104 0.000000 0.000000 0.000000 0.000000 0.000000 0.000000 132.174340 7.589717 -2.506665 -47.825660 1.173066 -2.506665 94.255711 -1.850616 29.940802 -149.364979 -7.082901 -1.883716 30.021641 5.884853 -29.940802 -5.096180 -0.810720 3.644843
961.460830 444.980668 167.458649 0.000000 0.000000 0.000000 0.000000 0.000000 0.000000 31.497152 8.973708 -7.362491 180.000000 -19.828948 -7.362491 30.152455 12.811888 29.468618 149.847545 -3.014180 -5.621439 24.175589 -4.144164 -29.468618 18.000000 1.217093 3.852566
1097.449951 565.089898 140.509287 0.000000 0.000000 0.000000 0.000000 0.000000 0.000000 -119.219568 -4.370067 -11.755705 60.780432 3.755241 -11.755705 -150.180642 -7.250222 28.531695 48.804955 -0.185966 -9.270510 -149.874178 -6.168257 -28.531695 2.713854 0.577089 4.045085
1114.140244 528.302071 151.858703 0.000000 0.000000 0.000000 0.000000 0.000000 0.000000 -142.671523 -5.361131 -15.410265 37.328477 9.391522 -15.410265 -177.395681 -2.769175 27.144812 34.687329 4.754582 -12.773379 161.894167 2.625891 -27.144812 -0.910956 0.068267 4.221640
1116.433640 479.728639 164.520901 0.000000 0.000000 0.000000 0.000000 0.000000 0.000000 -102.267481 -11.524218 -18.096541 77.732519 6.033800 -18.096541 -163.695626 2.325602 25.329838 38.575767 2.566816 -16.074804 -176.001122 -1.418295 -25.329838 0.706594 -0.118378 4.381533
1135.931282 466.493965 141.947434 0.000000 0.000000 0.000000 0.000000 0.000000 0.000000 -112.868406 -4.245329 -19.645745 67.131594 -11.943277 -19.645745 -159.517862 -2.378541 23.115397 36.204678 -3.963597 -19.122720 -154.426613 -5.529162 -23.115397 2.428729 0.448644 4.524135
1141.618767 467.420679 137.602043 0.000000 0.000000 0.000000 0.000000 0.000000 0.000000 -123.086385 -10.775216 -19.960535 56.913615 13.614461 -19.960535 -154.885724 -1.343262 20.536413 36.481623 2.254987 -21.869059 -153.965441 -5.601245 -20.536413 2.446728 0.485616 4.648882
1150.647926 469.370956 151.468817 0.000000 0.000000 0.000000 0.000000 0.000000 0.000000 -43.953779 -31.163126 -19.021130 136.046221 25.417320 -19.021130 -154.327268 -7.067536 17.633558 60.745168 25.599469 -24.270510 -153.350642 -7.820551 -17.633558 2.386216 0.617949 4.755283
1151.529922 496.420240 149.204918 0.000000 0.000000 0.000000 0.000000 0.000000 0.000000 -116.362129 -5.716634 -16.886559 63.637871 -4.453794 -16.886559 -149.081043 0.586978 14.452610 35.941860 -2.923967 -26.289200 -156.847177 1.563442 -14.452610 2.056513 -0.116856 4.842916
1148.402367 515.713574 161.150041 0.000000 0.000000 0.000000 0.000000 0.000000 0.000000 -118.252650 -15.707789 -13.690942 61.747350 8.579150 -13.690942 -138.082896 -3.297626 11.043737 -156.312677 -6.643765 -27.893295 21.649626 9.832569 -11.043737 2.962417 0.101165 4.911436
1175.363617 533.368646 125.579573 0.000000 0.000000 0.000000 0.000000 0.000000 0.000000 -95.476638 10.433442 -9.635073 84.523362 -9.961213 -9.635073 -113.907461 3.869818 7.460697 -155.995907 -6.734216 -29.057495 12.512064 8.273581 -7.460697 -16.748794 -0.827358 4.960574
1199.533310 485.991104 119.141048 0.000000 0.000000 0.000000 0.000000 0.000000 0.000000 -100.003195 -1.675073 -4.973798 79.996805 -0.028974 -4.973798 -86.083188 6.123314 3.759997 38.843754 3.385364 -29.763441 -106.539452 -1.804342 -3.759997 6.197806 -0.014071 4.990134
962.588190 444.938442 135.735382 0.000000 0.000000 0.000000 0.000000 0.000000 0.000000 39.579754 45.074287 -0.000000 180.000000 -22.282638 -0.000000 36.680773 -11.631888 0.000000 143.319227 -19.925562 -30.000000 29.388385 0.953356 -0.000000 18.000000 -1.115777 5.000000
1142.094727 445.716287 123.230472 0.000000 0.000000 0.000000 0.000000 0.000000 0.000000 -140.228454 -32.831906 4.973798 39.771546 -29.085500 4.973798 -156.118008 -5.377505 -3.759997 3.479189 -4.222209 -29.763441 -158.005660 -5.412735 3.759997 2.150019 0.515723 4.990134
1164.005928 424.847746 121.505867 0.000000 0.000000 0.000000 0.000000 0.000000 0.000000 -84.241076 4.660989 9.635073 95.758924 -9.180159 9.635073 -156.181584 -5.599264 -7.460697 166.928360 -7.255721 -29.057495 -154.947270 -5.632264 7.460697 2.644196 0.532488 4.960574
1124.208755 418.286655 127.667905 0.000000 0.000000 0.000000 0.000000 0.000000 0.000000 -117.427077 6.597517 13.690942 62.572923 -9.754647 13.690942 -155.943063 -5.488147 -11.043737 14.023837 -8.470112 -27.893295 -157.382674 -5.235798 11.043737 2.188130 0.493322 4.911436
962.990408 444.917226 116.744258 0.000000 0.000000 0.000000 0.000000 0.000000 0.000000 42.110883 -15.225300 16.886559 180.000000 -3.471951 16.886559 37.946959 6.094836 -14.452610 142.053041 6.444973 -26.289200 29.293612 1.256184 14.452610 18.000000 -0.789460 4.842916
963.090170 444.911436 90.411249 0.000000 0.000000 0.000000 0.000000 0.000000 0.000000 42.659200 -20.628726 19.021130 180.000000 18.027490 19.021130 38.119107 -13.519779 -17.633558 141.880893 2.431031 -24.270510 29.068887 1.853987 17.633558 18.000000 -0.652521 4.755283
1186.646461 396.272757 101.680608 0.000000 0.000000 0.000000 0.000000 0.000000 0.000000 -72.847419 -4.528415 19.960535 107.152581 19.977899 19.960535 -156.703603 -5.684885 -20.536413 178.447294 -9.452153 -21.869059 -157.212393 -4.583797 20.536413 1.964058 0.499698 4.648882
1313.051605 426.636125 85.507594 0.000000 0.000000 0.000000 0.000000 0.000000 0.000000 90.994869 5.338485 19.645745 -89.005131 -8.374165 19.645745 -160.515303 -4.269889 -23.115397 -153.248861 -1.523188 -19.122720 -159.640525 -4.874998 23.115397 0.000000 0.000000 0.000000
1347.999344 420.772226 88.477666 0.000000 0.000000 0.000000 0.000000 0.000000 0.000000 90.154351 1.595767 18.096541 -89.845649 -6.505877 18.096541 -162.053401 -3.748939 -25.329838 -136.198880 -7.158337 -16.074804 -160.991694 -3.598061 25.329838 0.000000 0.000000 0.000000
1344.315948 421.031681 83.989464 0.000000 0.000000 0.000000 0.000000 0.000000 0.000000 69.757587 -3.707616 15.410265 -110.242413 -4.895340 15.410265 25.616746 7.096675 -27.144812 -157.821005 -3.077377 -12.773379 17.214985 2.982035 27.144812 -16.704706 0.087643 4.221640
1350.307617 440.309436 79.901833 0.000000 0.000000 0.000000 0.000000 0.000000 0.000000 71.124018 0.910286 11.755705 -108.875982 5.074338 11.755705 42.739987 -10.970071 -28.531695 -142.315466 2.409776 -9.270510 16.600926 -2.340451 28.531695 -16.660102 0.300794 4.045085
1357.685051 430.688889 92.300648 0.000000 0.000000 0.000000 0.000000 0.000000 0.000000 77.656077 -3.644685 7.362491 -102.343923 5.721269 7.362491 39.407151 -6.816064 -29.468618 -136.343173 -4.122573 -5.621439 22.144452 -0.168186 29.468618 -16.305135 0.196414 3.852566
1369.482193 445.909406 70.637693 0.000000 0.000000 0.000000 0.000000 0.000000 0.000000 88.051188 4.376574 2.506665 -91.948812 -1.693369 2.506665 -161.283973 -3.245280 -29.940802 -119.799169 1.291944 -1.883716 -164.575400 -3.907957 29.940802 1.401013 0.450144 3.644843
963.875156 444.858159 83.145535 0.000000 0.000000 0.000000 0.000000 0.000000 0.000000 45.304844 -31.577332 -2.506665 180.000000 -6.194845 -2.506665 37.252439 2.582589 -29.940802 142.747561 1.924897 1.883716 25.146244 -9.004306 29.940802 18.000000 0.783226 3.422736
963.971479 444.850633 63.599810 0.000000 0.000000 0.000000 0.000000 0.000000 0.000000 45.383640 26.193097 -7.362491 180.000000 -17.422691 -7.362491 36.882310 -23.867583 -29.468618 143.117690 -6.175132 5.621439 24.499789 -6.165001 29.468618 18.000000 -0.398173 3.187120
1336.629524 469.010178 51.354168 0.000000 0.000000 0.000000 0.000000 0.000000 0.000000 -72.390177 -5.722671 -11.755705 107.609823 14.345672 -11.755705 -158.649984 -3.005881 -28.531695 2.583425 3.986328 9.270510 -39.658551 -11.322386 28.531695 10.837181 0.254739 2.938926
1311.966934 518.219100 57.767559 0.000000 0.000000 0.000000 0.000000 0.000000 0.000000 -63.565072 -40.946620 -15.410265 116.434928 30.733361 -15.410265 -14.840750 2.059748 -27.144812 -158.549348 -2.520276 12.773379 17.488774 2.402976 27.144812 7.174982 -3.738377 2.679134
964.257793 444.826908 48.884579 0.000000 0.000000 0.000000 0.000000 0.000000 0.000000 45.262206 -37.214990 -18.096541 180.000000 2.812508 -18.096541 35.497192 16.950359 -25.329838 144.502808 12.661918 16.074804 22.522929 -4.847963 25.329838 18.000000 -0.248318 2.408768
1275.921364 516.836239 46.536156 0.000000 0.000000 0.000000 0.000000 0.000000 0.000000 85.186295 -7.803575 -19.645745 -94.813705 -11.201411 -19.645745 52.470689 5.236730 -23.115397 -44.513683 -6.400481 19.122720 50.867598 2.728272 23.115397 -8.717188 0.707485 2.128896
